<svg width="42" height="41" viewBox="0 0 42 41" fill="none" xmlns="http://www.w3.org/2000/svg">
<path d="M21 0.166668C18.2641 0.166668 15.555 0.705538 13.0274 1.75251C10.4998 2.79948 8.20312 4.33406 6.26857 6.26861C2.36156 10.1756 0.166626 15.4747 0.166626 21C0.166626 30.2083 6.14579 38.0208 14.4166 40.7917C15.4583 40.9583 15.7916 40.3125 15.7916 39.75V36.2292C10.0208 37.4792 8.79163 33.4375 8.79163 33.4375C7.83329 31.0208 6.47913 30.375 6.47913 30.375C4.58329 29.0833 6.62496 29.125 6.62496 29.125C8.70829 29.2708 9.81246 31.2708 9.81246 31.2708C11.625 34.4375 14.6875 33.5 15.875 33C16.0625 31.6458 16.6041 30.7292 17.1875 30.2083C12.5625 29.6875 7.70829 27.8958 7.70829 19.9583C7.70829 17.6458 8.49996 15.7917 9.85413 14.3125C9.64579 13.7917 8.91663 11.625 10.0625 8.8125C10.0625 8.8125 11.8125 8.25 15.7916 10.9375C17.4375 10.4792 19.2291 10.25 21 10.25C22.7708 10.25 24.5625 10.4792 26.2083 10.9375C30.1875 8.25 31.9375 8.8125 31.9375 8.8125C33.0833 11.625 32.3541 13.7917 32.1458 14.3125C33.5 15.7917 34.2916 17.6458 34.2916 19.9583C34.2916 27.9167 29.4166 29.6667 24.7708 30.1875C25.5208 30.8333 26.2083 32.1042 26.2083 34.0417V39.75C26.2083 40.3125 26.5416 40.9792 27.6041 40.7917C35.875 38 41.8333 30.2083 41.8333 21C41.8333 18.2641 41.2944 15.555 40.2474 13.0274C39.2005 10.4998 37.6659 8.20316 35.7313 6.26861C33.7968 4.33406 31.5001 2.79948 28.9725 1.75251C26.4449 0.705538 23.7358 0.166668 21 0.166668V0.166668Z" fill="#333"/>
</svg>
